<mxfile host="app.diagrams.net" modified="2023-07-23T12:10:21.573Z" agent="Mozilla/5.0 (Windows NT 10.0; Win64; x64) AppleWebKit/537.36 (KHTML, like Gecko) Chrome/97.0.4692.71 Safari/537.36" etag="i5b22T4fO1gJ_OgXTfAg" version="21.6.3" type="github">
  <diagram name="第 1 页" id="LOS7mzXA7N-p5JwcYcmK">
    <mxGraphModel dx="1050" dy="625" grid="0" gridSize="10" guides="1" tooltips="1" connect="1" arrows="1" fold="1" page="1" pageScale="1" pageWidth="2336" pageHeight="1654" math="0" shadow="0">
      <root>
        <mxCell id="0" />
        <mxCell id="1" parent="0" />
        <mxCell id="etidLKn6lfzjelJglIWa-11" value="" style="edgeStyle=orthogonalEdgeStyle;rounded=0;orthogonalLoop=1;jettySize=auto;html=1;entryX=0.5;entryY=0;entryDx=0;entryDy=0;startArrow=block;startFill=0;endArrow=none;endFill=0;strokeWidth=1;endSize=15;targetPerimeterSpacing=4;startSize=10;" edge="1" parent="1" source="etidLKn6lfzjelJglIWa-2" target="etidLKn6lfzjelJglIWa-6">
          <mxGeometry relative="1" as="geometry" />
        </mxCell>
        <mxCell id="etidLKn6lfzjelJglIWa-2" value="A" style="swimlane;fontStyle=0;childLayout=stackLayout;horizontal=1;startSize=26;fillColor=none;horizontalStack=0;resizeParent=1;resizeParentMax=0;resizeLast=0;collapsible=1;marginBottom=0;whiteSpace=wrap;html=1;" vertex="1" parent="1">
          <mxGeometry x="330" y="100" width="140" height="52" as="geometry" />
        </mxCell>
        <mxCell id="etidLKn6lfzjelJglIWa-3" value="public virtual void func()" style="text;strokeColor=none;fillColor=none;align=left;verticalAlign=top;spacingLeft=4;spacingRight=4;overflow=hidden;rotatable=0;points=[[0,0.5],[1,0.5]];portConstraint=eastwest;whiteSpace=wrap;html=1;" vertex="1" parent="etidLKn6lfzjelJglIWa-2">
          <mxGeometry y="26" width="140" height="26" as="geometry" />
        </mxCell>
        <mxCell id="etidLKn6lfzjelJglIWa-6" value="B" style="swimlane;fontStyle=1;align=center;verticalAlign=top;childLayout=stackLayout;horizontal=1;startSize=26;horizontalStack=0;resizeParent=1;resizeParentMax=0;resizeLast=0;collapsible=1;marginBottom=0;whiteSpace=wrap;html=1;" vertex="1" parent="1">
          <mxGeometry x="320" y="200" width="160" height="52" as="geometry" />
        </mxCell>
        <mxCell id="etidLKn6lfzjelJglIWa-7" value="private virtual void func()" style="text;strokeColor=none;fillColor=none;align=left;verticalAlign=top;spacingLeft=4;spacingRight=4;overflow=hidden;rotatable=0;points=[[0,0.5],[1,0.5]];portConstraint=eastwest;whiteSpace=wrap;html=1;" vertex="1" parent="etidLKn6lfzjelJglIWa-6">
          <mxGeometry y="26" width="160" height="26" as="geometry" />
        </mxCell>
        <mxCell id="etidLKn6lfzjelJglIWa-14" style="edgeStyle=orthogonalEdgeStyle;rounded=0;orthogonalLoop=1;jettySize=auto;html=1;exitX=0;exitY=0.5;exitDx=0;exitDy=0;entryX=1;entryY=0.5;entryDx=0;entryDy=0;" edge="1" parent="1" source="etidLKn6lfzjelJglIWa-13" target="etidLKn6lfzjelJglIWa-7">
          <mxGeometry relative="1" as="geometry" />
        </mxCell>
        <mxCell id="etidLKn6lfzjelJglIWa-13" value="&lt;font style=&quot;font-size: 16px;&quot; face=&quot;Comic Sans MS&quot;&gt;b.func&lt;/font&gt;" style="rounded=1;whiteSpace=wrap;html=1;fillColor=none;strokeColor=none;" vertex="1" parent="1">
          <mxGeometry x="530" y="209" width="90" height="60" as="geometry" />
        </mxCell>
        <mxCell id="etidLKn6lfzjelJglIWa-15" value="&lt;font face=&quot;Comic Sans MS&quot;&gt;&lt;span style=&quot;font-size: 16px;&quot;&gt;禁止访问&lt;/span&gt;&lt;/font&gt;" style="rounded=1;whiteSpace=wrap;html=1;fillColor=none;strokeColor=none;" vertex="1" parent="1">
          <mxGeometry x="470" y="196" width="90" height="60" as="geometry" />
        </mxCell>
        <mxCell id="etidLKn6lfzjelJglIWa-16" value="&lt;font face=&quot;Comic Sans MS&quot;&gt;&lt;span style=&quot;font-size: 16px;&quot;&gt;虚函数表-B对象的内存布局&lt;/span&gt;&lt;/font&gt;" style="rounded=1;whiteSpace=wrap;html=1;fillColor=none;strokeColor=none;" vertex="1" parent="1">
          <mxGeometry x="710" y="40" width="210" height="60" as="geometry" />
        </mxCell>
        <mxCell id="etidLKn6lfzjelJglIWa-18" value="" style="shape=table;startSize=0;container=1;collapsible=0;childLayout=tableLayout;" vertex="1" parent="1">
          <mxGeometry x="700" y="139" width="60" height="120" as="geometry" />
        </mxCell>
        <mxCell id="etidLKn6lfzjelJglIWa-19" value="" style="shape=tableRow;horizontal=0;startSize=0;swimlaneHead=0;swimlaneBody=0;strokeColor=inherit;top=0;left=0;bottom=0;right=0;collapsible=0;dropTarget=0;fillColor=none;points=[[0,0.5],[1,0.5]];portConstraint=eastwest;" vertex="1" parent="etidLKn6lfzjelJglIWa-18">
          <mxGeometry width="60" height="40" as="geometry" />
        </mxCell>
        <mxCell id="etidLKn6lfzjelJglIWa-20" value="_vfptr" style="shape=partialRectangle;html=1;whiteSpace=wrap;connectable=0;strokeColor=inherit;overflow=hidden;fillColor=none;top=0;left=0;bottom=0;right=0;pointerEvents=1;fontFamily=Comic Sans MS;fontSize=16;" vertex="1" parent="etidLKn6lfzjelJglIWa-19">
          <mxGeometry width="60" height="40" as="geometry">
            <mxRectangle width="60" height="40" as="alternateBounds" />
          </mxGeometry>
        </mxCell>
        <mxCell id="etidLKn6lfzjelJglIWa-21" value="" style="shape=tableRow;horizontal=0;startSize=0;swimlaneHead=0;swimlaneBody=0;strokeColor=inherit;top=0;left=0;bottom=0;right=0;collapsible=0;dropTarget=0;fillColor=none;points=[[0,0.5],[1,0.5]];portConstraint=eastwest;" vertex="1" parent="etidLKn6lfzjelJglIWa-18">
          <mxGeometry y="40" width="60" height="40" as="geometry" />
        </mxCell>
        <mxCell id="etidLKn6lfzjelJglIWa-22" value="A..." style="shape=partialRectangle;html=1;whiteSpace=wrap;connectable=0;strokeColor=inherit;overflow=hidden;fillColor=none;top=0;left=0;bottom=0;right=0;pointerEvents=1;fontFamily=Comic Sans MS;fontSize=16;" vertex="1" parent="etidLKn6lfzjelJglIWa-21">
          <mxGeometry width="60" height="40" as="geometry">
            <mxRectangle width="60" height="40" as="alternateBounds" />
          </mxGeometry>
        </mxCell>
        <mxCell id="etidLKn6lfzjelJglIWa-23" value="" style="shape=tableRow;horizontal=0;startSize=0;swimlaneHead=0;swimlaneBody=0;strokeColor=inherit;top=0;left=0;bottom=0;right=0;collapsible=0;dropTarget=0;fillColor=none;points=[[0,0.5],[1,0.5]];portConstraint=eastwest;" vertex="1" parent="etidLKn6lfzjelJglIWa-18">
          <mxGeometry y="80" width="60" height="40" as="geometry" />
        </mxCell>
        <mxCell id="etidLKn6lfzjelJglIWa-24" value="B..." style="shape=partialRectangle;html=1;whiteSpace=wrap;connectable=0;strokeColor=inherit;overflow=hidden;fillColor=none;top=0;left=0;bottom=0;right=0;pointerEvents=1;fontFamily=Comic Sans MS;fontSize=16;" vertex="1" parent="etidLKn6lfzjelJglIWa-23">
          <mxGeometry width="60" height="40" as="geometry">
            <mxRectangle width="60" height="40" as="alternateBounds" />
          </mxGeometry>
        </mxCell>
        <mxCell id="etidLKn6lfzjelJglIWa-25" value="&lt;font face=&quot;Comic Sans MS&quot;&gt;&lt;span style=&quot;font-size: 16px;&quot;&gt;A的部分&lt;/span&gt;&lt;/font&gt;" style="rounded=1;whiteSpace=wrap;html=1;fillColor=none;strokeColor=none;" vertex="1" parent="1">
          <mxGeometry x="630" y="169" width="70" height="60" as="geometry" />
        </mxCell>
        <mxCell id="etidLKn6lfzjelJglIWa-26" value="&lt;font face=&quot;Comic Sans MS&quot;&gt;&lt;span style=&quot;font-size: 16px;&quot;&gt;B的部分&lt;/span&gt;&lt;/font&gt;" style="rounded=1;whiteSpace=wrap;html=1;fillColor=none;strokeColor=none;" vertex="1" parent="1">
          <mxGeometry x="630" y="209" width="70" height="60" as="geometry" />
        </mxCell>
        <mxCell id="etidLKn6lfzjelJglIWa-27" style="edgeStyle=orthogonalEdgeStyle;rounded=0;orthogonalLoop=1;jettySize=auto;html=1;exitX=1;exitY=0.5;exitDx=0;exitDy=0;" edge="1" parent="1" source="etidLKn6lfzjelJglIWa-19">
          <mxGeometry relative="1" as="geometry">
            <mxPoint x="800" y="159" as="targetPoint" />
          </mxGeometry>
        </mxCell>
        <mxCell id="etidLKn6lfzjelJglIWa-28" value="" style="shape=table;startSize=0;container=1;collapsible=0;childLayout=tableLayout;" vertex="1" parent="1">
          <mxGeometry x="800" y="139" width="190" height="40" as="geometry" />
        </mxCell>
        <mxCell id="etidLKn6lfzjelJglIWa-29" value="" style="shape=tableRow;horizontal=0;startSize=0;swimlaneHead=0;swimlaneBody=0;strokeColor=inherit;top=0;left=0;bottom=0;right=0;collapsible=0;dropTarget=0;fillColor=none;points=[[0,0.5],[1,0.5]];portConstraint=eastwest;" vertex="1" parent="etidLKn6lfzjelJglIWa-28">
          <mxGeometry width="190" height="40" as="geometry" />
        </mxCell>
        <mxCell id="etidLKn6lfzjelJglIWa-30" value="&lt;font style=&quot;font-size: 16px;&quot;&gt;[0]-&amp;gt;&amp;amp;B::func()&lt;/font&gt;" style="shape=partialRectangle;html=1;whiteSpace=wrap;connectable=0;strokeColor=inherit;overflow=hidden;fillColor=none;top=0;left=0;bottom=0;right=0;pointerEvents=1;" vertex="1" parent="etidLKn6lfzjelJglIWa-29">
          <mxGeometry width="190" height="40" as="geometry">
            <mxRectangle width="190" height="40" as="alternateBounds" />
          </mxGeometry>
        </mxCell>
        <mxCell id="etidLKn6lfzjelJglIWa-31" value="&lt;font face=&quot;Comic Sans MS&quot;&gt;&lt;span style=&quot;font-size: 16px;&quot;&gt;void* _vtable[1]&lt;/span&gt;&lt;/font&gt;" style="rounded=1;whiteSpace=wrap;html=1;fillColor=none;strokeColor=none;" vertex="1" parent="1">
          <mxGeometry x="790" y="92" width="210" height="60" as="geometry" />
        </mxCell>
      </root>
    </mxGraphModel>
  </diagram>
</mxfile>
